<?xml version="1.0" encoding="utf-8"?>
<!-- Generator: Adobe Illustrator 22.1.0, SVG Export Plug-In . SVG Version: 6.00 Build 0)  -->
<svg version="1.1" id="Layer_1" xmlns="http://www.w3.org/2000/svg" xmlns:xlink="http://www.w3.org/1999/xlink" x="0px" y="0px"
	 viewBox="0 0 1006 538" style="enable-background:new 0 0 1006 538;" xml:space="preserve">
<path d="M12,19h230c45.3,0,82,6.2,109.9,18.5c27.9,12.3,51,30,69.2,53c18.2,23,31.4,49.8,39.6,80.3c8.2,30.5,12.3,62.9,12.3,97.1
	c0,53.5-6.1,95.1-18.3,124.6c-12.2,29.5-29.1,54.2-50.8,74.2c-21.7,19.9-44.9,33.2-69.7,39.8c-34,9.1-64.7,13.7-92.3,13.7H12V19z
	 M166.8,132.5v273.8h37.9c32.4,0,55.4-3.6,69-10.8s24.4-19.7,32.1-37.6c7.7-17.9,11.6-46.9,11.6-87c0-53.1-8.7-89.4-26-109
	c-17.3-19.6-46-29.4-86.1-29.4H166.8z"/>
<path d="M808.4,437.4H632.7l-24.4,82.7H450.1L638.5,19h168.9l188.3,501.1H833.5L808.4,437.4z M776.3,329L721,148.9L666.3,329H776.3z
	"/>
</svg>
